<?xml version="1.0" encoding="UTF-8" standalone="no"?>
<svg
   xmlns:dc="http://purl.org/dc/elements/1.1/"
   xmlns:cc="http://creativecommons.org/ns#"
   xmlns:rdf="http://www.w3.org/1999/02/22-rdf-syntax-ns#"
   xmlns:svg="http://www.w3.org/2000/svg"
   xmlns="http://www.w3.org/2000/svg"
   xmlns:sodipodi="http://sodipodi.sourceforge.net/DTD/sodipodi-0.dtd"
   xmlns:inkscape="http://www.inkscape.org/namespaces/inkscape"
   width="30"
   height="30"
   id="svg2"
   version="1.1"
   inkscape:version="0.91 r"
   sodipodi:docname="sonar.svg">
  <metadata
     id="metadata34">
    <rdf:RDF>
      <cc:Work
         rdf:about="">
        <dc:format>image/svg+xml</dc:format>
        <dc:type
           rdf:resource="http://purl.org/dc/dcmitype/StillImage" />
        <dc:title></dc:title>
      </cc:Work>
    </rdf:RDF>
  </metadata>
  <defs
     id="defs32" />
  <sodipodi:namedview
     pagecolor="#ffffff"
     bordercolor="#666666"
     borderopacity="1"
     objecttolerance="10"
     gridtolerance="10"
     guidetolerance="10"
     inkscape:pageopacity="0"
     inkscape:pageshadow="2"
     inkscape:window-width="1600"
     inkscape:window-height="879"
     id="namedview30"
     showgrid="false"
     inkscape:zoom="2.3166667"
     inkscape:cx="60"
     inkscape:cy="15"
     inkscape:window-x="0"
     inkscape:window-y="21"
     inkscape:window-maximized="1"
     inkscape:current-layer="svg2" />
  <path
     style="fill:#4b9fd5"
     inkscape:connector-curvature="0"
     id="path6"
     d="m 24.698742,25.247804 -1.22246,0 c 0,-9.83637 -8.12817,-17.87548 -18.1669305,-17.87548 l 0,-1.26294 c 10.6945305,0 19.4136805,8.6382 19.4136805,19.13842 l -0.0243,0 z" />
  <path
     style="fill:#4b9fd5"
     inkscape:connector-curvature="0"
     id="path8"
     d="m 25.548802,18.665944 c -1.47343,-6.17708 -6.47662,-11.36647 -12.79134,-13.15564 l 0.28336,-1.00388 c 6.64664,1.93489 11.94128,7.38335 13.47137,13.96522 l -0.96339,0.1943 z" />
  <path
     style="fill:#4b9fd5"
     inkscape:connector-curvature="0"
     id="path10"
     d="m 26.933182,12.885554 c -1.522,-3.32736 -4.07217,-6.18517 -7.26192,-8.11197 l 0.40479,-0.72862 c 3.31117,1.99156 6.03945,5.05177 7.56956,8.50866 l -0.71243,0.33193 z" />
  <path
     style="fill:#ffffff"
     inkscape:connector-curvature="0"
     id="path26"
     d="m 11.024982,19.467424 c 0.01619,-1.13341 -0.46146,-2.85781 -2.4611205,-2.85781 -1.77296,0 -2.59064,1.65963 -2.72018,2.85781 l 5.1813005,0 m -5.1813005,1.26294 c 0.04047,2.39635 1.59486,3.39213 3.31927,3.39213 1.2791405,0 2.0644205,-0.26716 2.7282705,-0.53432 l 0.27526,1.26294 c -0.62337,0.26716 -1.67583,0.59909 -3.1978405,0.59909 -3.02782,0 -4.79269,-1.9268 -4.79269,-4.85747 -0.01619,-2.92258 1.7325,-5.24607 4.52554,-5.24607 3.1816405,0 4.0559805,2.79304 4.0559805,4.58221 -0.03238,0.33193 -0.07286,0.59909 -0.07286,0.80148 l -6.8409305,0 0,1e-5 z" />
</svg>
